<svg width="104" height="136" viewBox="0 0 104 136" fill="none" xmlns="http://www.w3.org/2000/svg">
<path d="M81.9311 89.8534L68.5275 85.9023V77.8734C71.009 75.9969 72.8872 73.4488 73.8822 70.5215L75.7828 64.9247C78.6672 64.101 80.8923 61.7285 81.3977 58.7785L82.3806 53.0569C82.8823 50.1395 81.8351 47.2103 79.5792 45.2207L79.4766 45.1293C79.527 44.8921 79.5671 44.654 79.6109 44.416C80.1154 43.8584 80.4316 43.1361 80.4316 42.3359V29.4687C85.4384 28.0865 89.1164 23.6076 89.1164 18.3105C89.1164 11.9154 83.7561 6.71241 77.1676 6.71241C74.19 6.71241 71.4166 7.78324 69.2941 9.5927C65.5098 3.89548 58.9306 0.255737 51.6753 0.255737C44.5935 0.255737 38.1393 3.70539 34.3074 9.21433C32.2428 7.62393 29.6475 6.7115 26.8834 6.7115C20.2949 6.7115 14.9345 11.9145 14.9345 18.3096C14.9345 23.6067 18.6125 28.0856 23.6194 29.4678V42.335C23.6194 43.137 23.9365 43.8611 24.4429 44.4196C24.4867 44.6559 24.5259 44.8921 24.5762 45.1275L24.4718 45.2198C22.2169 47.2085 21.1687 50.1385 21.6695 53.055L22.6524 58.7776C23.1587 61.7276 25.3847 64.1001 28.2673 64.9238L30.1688 70.5206C31.1629 73.4479 33.0401 75.996 35.5235 77.8724V85.9014L22.1199 89.8525C9.2814 93.6371 0.655273 104.93 0.655273 117.954V132.217C0.655273 133.967 2.11659 135.385 3.91921 135.385H100.133C101.935 135.385 103.397 133.967 103.397 132.217V117.954C103.396 104.931 94.7696 93.6371 81.9311 89.8534ZM61.9996 88.2187L52.4773 97.4615C51.5485 97.1293 50.6943 96.6106 49.9734 95.9109L42.0495 88.2187V81.8218L42.7125 82.2074C45.3144 83.7217 48.2929 84.5228 51.3265 84.5228H52.7216C55.7552 84.5228 58.7338 83.7217 61.3357 82.2074L61.9987 81.8218L61.9996 88.2187ZM21.4624 18.3096C21.4624 15.4085 23.8945 13.0478 26.8834 13.0478C29.087 13.0478 31.0547 14.3277 31.8958 16.3082C32.4143 17.5293 33.6528 18.3232 35.018 18.268C36.3777 18.2254 37.5676 17.3691 38.005 16.1182C39.9941 10.4209 45.4878 6.59202 51.6763 6.59202C58.2041 6.59202 63.9356 10.8726 65.617 17.0025C65.9966 18.3911 67.2919 19.356 68.7709 19.356C68.7737 19.356 68.7774 19.356 68.7802 19.356C70.2639 19.3515 71.5574 18.3775 71.9304 16.9844C72.5505 14.6662 74.7047 13.0478 77.1676 13.0478C80.1565 13.0478 82.5886 15.4085 82.5886 18.3096C82.5886 21.2107 80.1565 23.5714 77.1676 23.5714C75.365 23.5714 73.9037 24.9899 73.9037 26.7396V39.1668H65.4314V31.2963C65.4314 30.0462 64.3879 29.0333 63.1 29.0333C61.8122 29.0333 60.7687 30.0462 60.7687 31.2963V39.1668H43.2833V31.2963C43.2833 30.0462 42.2397 29.0333 40.9519 29.0333C39.664 29.0333 38.6205 30.0462 38.6205 31.2963V39.1668H30.1473V26.7396C30.1473 24.9899 28.686 23.5714 26.8834 23.5714C23.8945 23.5714 21.4624 21.2116 21.4624 18.3096ZM30.8131 58.9396L30.3525 58.8917C29.7146 58.8256 29.1952 58.3504 29.0898 57.7367L28.1078 52.0141C27.9735 51.2311 28.2551 50.4445 28.8604 49.9104L30.3991 48.5536C31.2748 47.7815 31.6403 46.6147 31.3783 45.504H72.6718C72.4097 46.6147 72.7762 47.7833 73.651 48.5554L75.1878 49.9104C75.793 50.4445 76.0747 51.2302 75.9404 52.0141L74.9575 57.7376C74.8521 58.3513 74.3327 58.8256 73.6948 58.8917L73.2444 58.9387C71.8008 59.0854 70.5707 60.0449 70.1082 61.3927L67.6817 68.5364C66.9748 70.6183 65.52 72.3843 63.584 73.5104L57.9785 76.7726C56.3903 77.6968 54.5728 78.1865 52.7207 78.1865H51.3256C49.4745 78.1865 47.656 77.6977 46.0679 76.7726L40.4623 73.5104C38.5263 72.3843 37.0715 70.6183 36.3646 68.5373L33.9391 61.3972C33.4877 60.0521 32.2567 59.0872 30.8131 58.9396ZM7.18222 117.954C7.18222 107.74 13.947 98.8835 24.0158 95.9146L38.8732 91.5344L46.6768 99.1098C48.8665 101.235 51.777 102.406 54.874 102.406H71.9808C73.1893 102.406 74.1732 103.361 74.1732 104.534V129.049H7.18222V117.954ZM96.8678 129.049H78.836V104.534C78.836 100.865 75.7604 97.8797 71.9808 97.8797H58.6396L65.1768 91.5344L80.0343 95.9146C90.104 98.8826 96.8688 107.739 96.8688 117.954V129.049H96.8678Z" fill="#2C2C2C"/>
</svg>
