<svg width="15" height="15" viewBox="0 0 15 15" fill="none" xmlns="http://www.w3.org/2000/svg">
<path d="M7.13672 0.00312424C5.43281 0.093359 3.87656 0.717968 2.58398 1.82891C2.41406 1.97539 2.04492 2.33984 1.88906 2.51562C1.44844 3.01484 1.09805 3.5293 0.802734 4.11523C0.364453 4.98242 0.118359 5.84375 0.0210938 6.8457C-0.00703125 7.14102 -0.00703125 7.85117 0.0210938 8.14648C0.118359 9.14844 0.364453 10.0098 0.802734 10.877C1.17891 11.6223 1.63594 12.2469 2.23945 12.8398C2.80078 13.3918 3.3832 13.8137 4.06523 14.1652C4.94297 14.6152 5.82539 14.8707 6.84375 14.9691C7.13906 14.9973 7.84922 14.9973 8.14453 14.9691C9.16289 14.8707 10.0453 14.6152 10.923 14.1652C11.6051 13.8137 12.1875 13.3918 12.7488 12.8398C13.3523 12.2469 13.8094 11.6223 14.1855 10.877C14.6238 10.0098 14.8699 9.14844 14.9672 8.14648C14.9953 7.85117 14.9953 7.14102 14.9672 6.8457C14.8699 5.84375 14.6238 4.98242 14.1855 4.11523C13.8094 3.36992 13.3523 2.74531 12.7488 2.15234C12.3633 1.77266 12.0375 1.51016 11.6016 1.22305C10.5609 0.541015 9.41367 0.142577 8.15625 0.0253897C7.96641 0.00781155 7.31719 -0.00625038 7.13672 0.00312424ZM7.98047 1.54883C8.35195 1.58047 8.62617 1.62617 8.9625 1.71172C10.9488 2.2168 12.5391 3.70742 13.1719 5.65625C13.4754 6.59141 13.541 7.62266 13.3594 8.60117C12.9645 10.7305 11.4059 12.5012 9.33398 13.1738C8.39883 13.4773 7.36758 13.543 6.38906 13.3613C4.25977 12.9664 2.48906 11.4078 1.81641 9.33594C1.51289 8.40078 1.44727 7.36953 1.62891 6.39102C1.97109 4.54648 3.20156 2.93984 4.89961 2.12187C5.57109 1.79844 6.28008 1.60742 7.04297 1.54414C7.24219 1.52773 7.76602 1.53008 7.98047 1.54883Z" fill="black"/>
<path d="M7.15431 3.33592C6.96798 3.35115 6.70899 3.38982 6.52735 3.42967C5.18556 3.72849 4.0547 4.69412 3.54259 5.97732C3.18282 6.88201 3.14767 7.89568 3.44649 8.82146C3.82149 9.98631 4.68517 10.9308 5.81954 11.4137C6.38321 11.6539 6.99728 11.7629 7.64649 11.7359C9.15587 11.6762 10.5317 10.782 11.2149 9.41678C11.3484 9.15193 11.4609 8.85193 11.5254 8.59764C11.5383 8.54256 11.5524 8.48865 11.5559 8.47693C11.5617 8.45818 11.509 8.45701 10.5598 8.45701H9.55782L9.49689 8.57537C9.09962 9.34881 8.31446 9.82928 7.44962 9.8281C6.81798 9.82693 6.24024 9.58084 5.80079 9.12263C5.46095 8.7699 5.25235 8.34334 5.18087 7.85818C5.15743 7.69998 5.15626 7.37771 5.1797 7.21717C5.31212 6.28787 5.99415 5.53084 6.90235 5.30701C7.21173 5.22967 7.56564 5.22146 7.88673 5.2824C8.04376 5.3117 8.28282 5.38904 8.43165 5.45935C8.86407 5.66209 9.26134 6.0406 9.4711 6.44724L9.51564 6.53513L10.527 6.53748C11.2418 6.53982 11.5371 6.53748 11.5371 6.5281C11.5371 6.50467 11.4692 6.27263 11.4258 6.14842C11.3063 5.80857 11.1656 5.52498 10.957 5.21092C10.7988 4.97302 10.6664 4.80779 10.4719 4.60974C10.2317 4.36365 10.0231 4.19021 9.76993 4.02381C9.20626 3.65232 8.6086 3.43552 7.92423 3.35232C7.7461 3.33123 7.3336 3.32185 7.15431 3.33592Z" fill="black"/>
</svg>
